<?xml version="1.0" standalone="no"?>
<!DOCTYPE svg PUBLIC "-//W3C//DTD SVG 20010904//EN"
 "http://www.w3.org/TR/2001/REC-SVG-20010904/DTD/svg10.dtd">
<svg version="1.0" xmlns="http://www.w3.org/2000/svg"
 width="500.000000pt" height="500.000000pt" viewBox="0 0 500.000000 500.000000"
 preserveAspectRatio="xMidYMid meet">

<g transform="translate(0.000000,500.000000) scale(0.100000,-0.100000)"
fill="#000000" stroke="none">
<path d="M2294 4848 c-16 -26 -6 -108 19 -159 22 -44 23 -50 7 -46 -9 2 -26 0
-36 -5 -17 -9 -17 -8 1 7 19 15 19 16 -12 47 -31 30 -32 31 -26 7 6 -22 4 -21
-22 9 -15 18 -30 31 -32 28 -3 -3 -21 6 -39 21 -19 14 -34 20 -34 14 0 -6 -14
-2 -32 9 -18 11 -37 20 -41 20 -19 0 22 -152 59 -216 13 -22 24 -49 24 -59 0
-17 -1 -17 -19 -1 -19 17 -20 17 -31 -24 l-11 -43 -45 44 c-25 24 -55 61 -67
82 -12 21 -37 48 -54 59 l-33 20 6 -34 c7 -34 73 -148 87 -148 5 0 5 -5 1 -12
-4 -7 -3 -8 4 -4 13 8 34 -26 29 -46 -2 -7 -2 -10 0 -7 10 16 96 -89 153 -187
35 -60 76 -122 91 -139 15 -16 41 -59 57 -95 l31 -65 -39 44 c-21 25 -38 47
-37 50 3 14 -31 61 -88 121 -34 36 -65 75 -69 88 -4 12 -11 20 -16 17 -5 -3
-27 18 -49 47 -22 29 -50 65 -61 81 -12 15 -26 24 -32 21 -7 -5 -8 -2 -4 5 5
7 1 20 -7 29 -9 9 -32 35 -52 57 -27 30 -34 34 -25 15 11 -24 10 -24 -4 -6 -9
11 -16 23 -16 28 0 4 -12 8 -27 8 l-26 0 23 -25 c28 -29 19 -33 -18 -7 -38 26
-70 33 -68 15 1 -8 9 -19 17 -24 12 -7 12 -9 -1 -9 -9 -1 -6 -6 9 -14 23 -13
23 -14 5 -24 -10 -6 -14 -12 -9 -12 6 0 3 -4 -5 -10 -12 -7 -11 -10 5 -16 27
-10 37 -27 22 -36 -8 -6 -5 -10 10 -14 14 -4 20 -11 16 -20 -9 -23 28 -43 82
-45 43 -2 45 -3 15 -7 -33 -5 -34 -5 -10 -12 22 -7 20 -8 -15 -10 -23 -1 -32
-4 -20 -7 17 -5 15 -7 -10 -18 -21 -9 -24 -14 -12 -14 10 -1 15 -5 12 -11 -4
-6 32 -9 102 -8 59 1 87 3 61 5 -36 3 -46 7 -41 19 4 10 -3 14 -28 15 -27 0
-30 2 -14 8 11 4 33 4 50 0 16 -5 42 -11 58 -14 18 -4 27 -12 27 -25 0 -13 10
-25 28 -31 25 -10 26 -12 7 -19 -11 -5 -15 -9 -8 -9 7 -1 28 -12 47 -25 26
-17 32 -26 23 -35 -8 -8 -7 -11 6 -11 9 0 43 -25 74 -56 37 -36 46 -48 26 -34
-18 11 -38 18 -45 14 -8 -5 -6 -10 8 -15 16 -6 15 -8 -8 -8 -39 -1 -63 9 -46
20 9 6 3 9 -17 9 -23 0 -27 3 -15 10 13 8 12 10 -2 10 -10 0 -18 7 -18 15 0
20 13 19 52 -5 47 -28 60 -25 17 4 -20 14 -49 26 -65 28 -16 2 -32 9 -35 17
-3 8 -23 20 -45 27 l-39 12 32 7 c50 11 29 25 -40 26 -52 1 -56 3 -27 8 l35 7
-47 8 c-48 8 -88 2 -88 -15 0 -5 12 -9 26 -9 14 0 23 -4 19 -10 -3 -5 4 -10
16 -10 18 0 19 -2 9 -15 -8 -10 -9 -15 -2 -15 6 0 9 -7 6 -15 -6 -15 20 -21
71 -15 18 2 18 0 -5 -20 -21 -18 -32 -20 -65 -14 -158 28 -332 -21 -479 -136
-76 -60 -106 -98 -106 -134 0 -32 12 -33 82 -5 106 42 276 79 356 78 52 0 70
-3 57 -9 -11 -4 -51 -21 -90 -36 -90 -37 -156 -76 -150 -91 2 -6 -11 -17 -28
-24 -40 -17 -148 -124 -187 -186 -29 -46 -35 -77 -24 -120 6 -21 6 -21 52 10
26 16 71 48 100 70 61 47 78 44 29 -4 -24 -23 -45 -62 -67 -120 -31 -86 -32
-88 -15 -123 18 -37 37 -45 55 -23 5 6 36 53 69 102 59 91 184 225 210 225 11
0 9 -6 -6 -20 -12 -10 -24 -34 -28 -52 -4 -18 -11 -35 -16 -38 -4 -3 -9 -23
-10 -45 -1 -22 -6 -48 -11 -57 -18 -37 -16 -134 4 -220 11 -49 24 -88 29 -88
5 0 3 -15 -5 -34 -8 -19 -11 -38 -8 -42 4 -4 2 -4 -4 -1 -15 9 -32 -31 -29
-70 1 -18 -2 -30 -6 -27 -17 10 -23 -51 -24 -261 l-1 -220 39 -155 c55 -222
62 -249 85 -307 23 -61 33 -54 -105 -78 -65 -12 -93 -21 -93 -31 0 -8 6 -15
13 -15 6 -1 19 -2 27 -3 12 -1 18 -27 27 -116 19 -190 19 -221 -3 -237 -18
-14 -18 -15 5 -32 22 -17 26 -31 38 -147 10 -100 10 -134 1 -151 -16 -32 -6
-37 44 -19 25 8 92 20 149 26 138 15 184 26 242 57 97 53 136 128 116 222 -6
27 -20 62 -31 76 -30 39 -95 67 -167 73 l-64 5 34 18 c83 43 128 128 110 209
-20 88 -57 113 -158 108 -61 -3 -62 -3 -67 26 -3 16 -6 61 -6 100 0 39 -5 87
-10 107 -7 25 -7 46 0 63 7 21 4 46 -15 114 -34 117 -39 172 -16 172 25 0 74
-149 85 -260 6 -55 17 -90 27 -84 5 3 9 0 9 -6 0 -6 4 -9 9 -5 5 3 15 -11 21
-30 6 -19 32 -59 56 -87 25 -29 50 -69 56 -90 14 -47 66 -109 116 -139 53 -32
142 -128 142 -153 0 -49 -21 -97 -47 -107 -24 -9 -25 -11 -9 -28 21 -23 20
-39 -9 -151 -21 -79 -31 -99 -58 -122 -17 -14 -30 -28 -27 -30 11 -7 170 4
170 12 0 5 -9 14 -20 20 -26 14 -25 38 2 155 l21 94 41 6 c23 4 64 3 91 -2
l50 -8 7 -55 c3 -30 6 -83 7 -117 1 -60 0 -63 -34 -89 -38 -29 -35 -55 3 -35
12 6 71 11 135 11 98 0 116 3 130 18 27 29 21 45 -8 26 -14 -9 -28 -14 -31
-11 -3 3 -14 58 -24 123 -17 115 -17 117 2 136 20 20 20 20 -5 42 -24 19 -27
32 -42 163 -21 202 -20 239 8 254 12 7 24 15 27 19 3 4 31 17 64 29 53 20 61
20 82 6 13 -8 35 -15 49 -15 14 0 25 -4 25 -10 0 -25 18 -5 39 43 20 45 22 61
16 117 -8 77 -8 75 -3 306 3 136 7 186 18 198 25 31 68 47 105 40 31 -5 36 -3
55 27 16 26 20 44 16 74 -8 58 -26 116 -34 111 -5 -3 -6 12 -4 32 2 28 1 33
-7 22 -6 -8 -11 -25 -11 -37 0 -13 -5 -23 -11 -23 -6 0 -24 -9 -39 -20 -25
-18 -60 -19 -60 -1 0 4 -15 5 -33 3 -23 -3 -38 2 -51 17 -11 12 -17 23 -15 25
2 3 29 -4 59 -14 98 -34 117 -25 127 59 6 51 22 70 24 29 1 -13 6 0 11 27 22
120 21 131 -6 178 -22 37 -27 61 -32 142 -3 54 -7 102 -9 106 -3 4 -7 40 -10
80 -8 116 -16 162 -32 192 -20 40 -10 71 32 97 19 12 35 26 35 31 0 10 -39
-12 -74 -40 -10 -9 -17 -11 -15 -4 2 6 26 26 53 45 51 34 74 64 39 51 -16 -6
-16 -4 2 16 11 13 20 33 21 45 0 11 5 31 12 43 16 29 15 38 -2 24 -10 -8 -8 1
5 26 11 22 17 48 14 61 -3 12 -2 22 2 22 5 0 9 10 9 23 1 12 6 47 12 77 15 80
22 187 11 169 -5 -8 -9 -24 -9 -35 0 -12 -9 -41 -20 -65 l-21 -44 7 60 c4 33
13 74 20 92 21 49 16 203 -6 203 -4 0 -10 -17 -14 -38 -3 -21 -24 -74 -47
-117 -41 -77 -42 -81 -32 -130 12 -56 11 -60 -13 -51 -11 4 -15 14 -12 31 3
14 1 25 -3 25 -5 0 -9 -8 -9 -18 0 -12 -14 -25 -40 -37 -22 -10 -47 -26 -56
-36 -20 -22 -34 -24 -34 -6 0 8 11 20 25 27 14 7 23 15 20 18 -2 3 -11 -1 -20
-8 -23 -19 -28 -7 -29 64 -1 35 -4 62 -8 59 -5 -2 -8 4 -9 14 0 16 -1 16 -8
-2 -7 -18 -10 -15 -25 19 -9 21 -16 44 -16 52 0 7 -5 16 -11 20 -8 4 -10 28
-6 70 4 35 3 65 -1 68 -6 4 -8 -7 -13 -84 -1 -17 -3 -20 -6 -7 -2 9 -11 17
-19 17 -8 0 -14 5 -14 11 0 5 5 7 10 4 6 -3 14 4 19 17 6 17 4 26 -8 35 -10 7
-18 8 -22 1 -4 -5 -13 -3 -23 7 -18 19 -21 8 -6 -31 7 -17 7 -31 1 -37 -6 -6
-14 13 -21 49 -7 33 -21 67 -31 77 -10 10 -19 22 -19 27 0 5 -8 11 -19 15 -10
3 -21 18 -24 35 -4 15 -16 39 -28 52 -11 13 -31 38 -42 57 -43 67 -57 46 -46
-67 4 -35 12 -69 19 -75 10 -10 11 -5 8 22 l-5 35 23 -28 c14 -15 24 -21 25
-14 2 25 30 -117 36 -180 3 -41 10 -65 19 -69 10 -3 14 -23 14 -60 0 -33 4
-52 10 -48 6 3 10 -2 10 -12 0 -15 2 -16 11 -3 8 11 9 -14 6 -90 -4 -92 -2
-113 19 -170 l24 -65 -7 60 c-3 33 -9 70 -14 82 -6 17 -5 21 6 16 16 -5 20
-21 16 -61 -1 -13 2 -22 6 -19 4 3 6 -17 5 -44 -3 -31 0 -49 7 -49 14 0 14
-50 1 -70 -9 -13 -10 -13 -11 0 0 8 -7 -2 -15 -23 -10 -29 -11 -44 -3 -59 8
-15 8 -19 0 -14 -6 4 -11 1 -11 -6 -1 -8 -6 -6 -15 6 -8 11 -15 15 -15 10 0
-5 15 -27 32 -49 18 -22 24 -33 14 -25 -16 13 -16 8 5 -27 13 -23 27 -39 30
-37 4 2 10 -49 12 -113 6 -136 7 -143 19 -143 4 0 3 -9 -4 -20 -8 -13 -19 -18
-31 -14 -17 5 -18 1 -14 -51 2 -31 11 -63 19 -71 9 -9 13 -26 10 -44 -5 -34
-22 -41 -22 -10 0 11 -11 48 -25 81 -25 58 -26 107 -3 93 7 -5 9 -1 5 9 -3 9
0 20 8 24 10 6 15 39 18 126 3 104 2 119 -15 134 -23 20 -24 6 -1 -19 9 -10
12 -18 6 -18 -9 0 -63 55 -63 64 0 2 -16 30 -35 62 -34 56 -48 97 -21 62 7
-10 16 -18 20 -18 10 0 7 60 -5 83 -12 21 -11 21 8 5 19 -18 19 -17 17 45 -1
34 -6 73 -10 87 -7 22 -6 23 8 12 14 -11 16 -10 11 9 -4 12 -14 30 -24 40 -17
17 -62 109 -56 115 2 2 20 -8 40 -21 25 -17 35 -20 31 -10 -4 8 -9 15 -13 15
-3 0 -14 15 -23 33 -41 79 -49 99 -39 93 15 -10 14 6 -3 29 -11 17 -46 117
-46 133 0 2 6 2 14 -1 12 -5 12 0 4 26 -5 18 -12 40 -15 49 -5 18 -65 81 -210
221 -64 61 -94 84 -99 75z m-84 -153 c0 -5 -5 -3 -10 5 -5 8 -10 20 -10 25 0
6 5 3 10 -5 5 -8 10 -19 10 -25z m-75 -53 c-3 -3 10 -15 28 -28 23 -16 49 -56
92 -140 33 -66 71 -131 84 -146 14 -15 21 -31 18 -35 -4 -3 0 -15 9 -24 9 -10
18 -30 20 -44 1 -14 10 -38 20 -53 l17 -27 -29 19 c-53 34 -73 58 -90 108 -9
27 -22 52 -30 55 -8 3 -14 11 -14 19 0 8 -6 14 -12 15 -10 0 -10 2 -1 5 8 4 4
17 -13 41 -14 20 -22 43 -20 50 3 7 -3 18 -13 25 -10 6 -16 19 -14 28 2 9 -14
40 -36 70 -29 39 -37 56 -28 62 6 4 8 8 2 8 -5 0 -19 13 -29 28 l-19 27 31
-29 c18 -16 30 -32 27 -34z m299 -208 c-6 36 -6 38 14 27 29 -16 46 -50 44
-86 -2 -23 0 -26 7 -15 8 11 12 4 17 -29 5 -33 9 -39 16 -27 16 28 28 17 28
-25 0 -22 4 -38 9 -35 5 3 12 -21 15 -54 4 -34 11 -58 17 -55 10 7 10 3 13
-62 1 -32 4 -39 14 -31 10 9 11 6 2 -16 -5 -15 -10 -39 -10 -53 0 -14 -9 -41
-21 -59 -11 -19 -18 -38 -14 -44 3 -6 3 -20 -1 -32 -6 -20 -7 -19 -20 11 -17
39 -18 62 -3 41 8 -12 9 -9 4 10 -8 29 -12 49 -20 103 -3 21 -10 35 -15 32 -4
-3 -14 12 -21 32 -6 21 -22 59 -35 85 -26 51 -52 124 -52 148 -1 8 -5 32 -10
52 -6 22 -6 35 -1 32 15 -9 10 18 -16 81 -34 83 -30 83 11 0 31 -61 34 -65 28
-31z m783 -76 c-3 -7 -5 -2 -5 12 0 14 2 19 5 13 2 -7 2 -19 0 -25z m-1293
-17 l29 -30 -37 4 c-21 2 -41 6 -44 11 -4 4 3 4 16 1 13 -3 20 -1 16 5 -4 5
-23 7 -43 4 -25 -4 -30 -3 -16 3 22 10 13 16 -35 24 -14 2 0 5 31 6 49 1 58
-2 83 -28z m906 15 c0 -7 3 -35 6 -62 4 -27 4 -46 0 -42 -11 9 -24 118 -14
118 4 0 8 -6 8 -14z m57 -58 c-3 -8 -6 -5 -6 6 -1 11 2 17 5 13 3 -3 4 -12 1
-19z m23 -32 c0 -3 -4 -8 -10 -11 -5 -3 -10 -1 -10 4 0 6 5 11 10 11 6 0 10
-2 10 -4z m-844 -38 l29 -33 -32 29 c-18 17 -33 31 -33 33 0 8 8 1 36 -29z
m605 -5 c13 -16 12 -17 -3 -4 -17 13 -22 21 -14 21 2 0 10 -8 17 -17z m129 7
c0 10 7 7 20 -10 12 -15 19 -39 19 -60 -1 -19 -3 -27 -6 -17 -2 9 -9 15 -14
12 -5 -4 -9 0 -9 7 0 9 -3 9 -10 -2 -8 -13 -10 -13 -10 1 0 9 -3 32 -6 50 -4
26 -3 30 5 19 10 -13 11 -13 11 0z m367 -62 c-3 -7 -5 -2 -5 12 0 14 2 19 5
13 2 -7 2 -19 0 -25z m73 -4 c-5 -19 -11 -39 -15 -42 -6 -6 0 32 11 66 8 27
11 10 4 -24z m-809 -46 c16 -18 32 -44 35 -58 3 -14 10 -33 15 -43 9 -16 8
-17 -11 -7 -11 6 -25 8 -30 5 -6 -4 -9 -2 -8 4 2 5 -6 17 -17 26 l-20 17 20
-6 c17 -5 16 -3 -5 14 -14 11 -29 20 -34 20 -5 0 -7 3 -4 6 3 3 15 0 27 -7 35
-23 36 0 0 31 -26 22 -30 29 -16 30 10 0 32 -15 48 -32z m726 -10 c-3 -8 -6
-5 -6 6 -1 11 2 17 5 13 3 -3 4 -12 1 -19z m-660 -45 c21 -51 11 -49 -14 3
-12 25 -17 42 -12 38 6 -3 18 -22 26 -41z m-287 11 c0 -2 -9 0 -20 6 -11 6
-20 13 -20 16 0 2 9 0 20 -6 11 -6 20 -13 20 -16z m900 -95 c0 -9 -9 -45 -20
-79 -11 -34 -20 -79 -20 -99 0 -20 -4 -43 -10 -51 -5 -9 -7 26 -3 95 3 61 8
112 12 115 3 3 6 13 7 23 0 9 2 36 3 60 l2 42 15 -45 c7 -25 14 -52 14 -61z
m83 56 c-3 -9 -8 -14 -10 -11 -3 3 -2 9 2 15 9 16 15 13 8 -4z m-38 -104 c-14
-28 -27 -51 -29 -51 -8 0 12 66 29 100 30 56 30 10 0 -49z m-662 29 c4 -15 0
-20 -16 -20 -16 0 -18 3 -9 9 10 6 10 10 -2 21 -9 7 -13 16 -10 22 8 12 30 -7
37 -32z m-610 3 c-13 -2 -35 -2 -50 0 -16 2 -5 4 22 4 28 0 40 -2 28 -4z m346
3 c-2 -2 -21 -6 -42 -10 -27 -5 -37 -4 -32 3 3 6 22 11 42 11 20 0 34 -2 32
-4z m-450 -10 c-2 -2 -29 -6 -59 -9 -36 -4 -46 -3 -30 3 25 8 97 13 89 6z
m226 -7 c61 -18 27 -21 -41 -5 -42 10 -50 15 -29 15 17 1 48 -4 70 -10z m-153
-20 c-34 -23 -49 -20 -39 6 4 9 19 15 39 15 l33 0 -33 -21z m698 -14 c0 -5 -5
-3 -10 5 -5 8 -10 20 -10 25 0 6 5 3 10 -5 5 -8 10 -19 10 -25z m414 -3 c-5
-46 -34 -96 -69 -119 -29 -19 -33 -20 -28 -5 6 15 5 16 -12 2 -18 -15 -18 -14
-1 13 16 24 15 31 -5 29 -4 -1 -6 18 -5 41 1 36 4 42 24 43 18 1 21 -3 16 -19
-4 -14 -2 -18 7 -15 8 3 14 11 15 19 1 30 15 46 38 42 18 -4 22 -10 20 -31z
m-1307 22 c-3 -3 -12 -4 -19 -1 -8 3 -5 6 6 6 11 1 17 -2 13 -5z m73 -9 c-7
-8 -22 -15 -34 -15 -21 1 -21 1 -2 15 27 21 53 20 36 0z m-110 1 c0 -6 -93
-37 -97 -32 -2 2 15 11 39 19 47 17 58 19 58 13z m460 -6 c8 -5 11 -10 5 -10
-5 0 -17 5 -25 10 -8 5 -10 10 -5 10 6 0 17 -5 25 -10z m1087 -31 c-4 -21 -32
-49 -50 -49 -7 0 41 67 50 69 2 1 1 -9 0 -20z m-1692 -29 c-3 -5 -12 -10 -18
-10 -7 0 -6 4 3 10 19 12 23 12 15 0z m998 -28 l37 -25 -27 -17 c-24 -15 -32
-15 -54 -4 -28 14 -43 30 -52 57 -10 26 48 19 96 -11z m-140 7 c14 -6 30 -22
36 -35 6 -13 15 -24 21 -24 16 0 12 -17 -6 -24 -12 -5 -15 -2 -10 10 4 10 2
14 -6 11 -21 -7 -50 13 -44 30 4 10 2 13 -8 10 -8 -3 -17 -3 -21 1 -6 7 -10 8
-37 11 -9 1 -8 4 2 11 20 13 44 12 73 -1z m-368 -30 c-7 -10 -35 -1 -35 11 0
5 9 6 20 3 11 -3 17 -9 15 -14z m316 -2 c19 -14 19 -14 -1 -32 -15 -13 -24
-15 -31 -8 -8 8 -8 13 0 17 14 9 14 26 1 26 -5 0 -10 -7 -10 -15 0 -8 -5 -15
-10 -15 -15 0 -90 39 -90 47 0 11 121 -6 141 -20z m841 0 c-12 -13 -20 -26
-17 -29 3 -3 -1 -8 -9 -11 -11 -4 -13 -1 -9 11 8 23 34 52 46 52 6 0 1 -10
-11 -23z m-1243 2 c48 -17 32 -20 -19 -4 -25 7 -38 14 -29 14 9 1 30 -4 48
-10z m1076 -20 c-1 -21 -18 -46 -55 -85 -29 -30 -55 -53 -57 -51 -8 9 23 63
59 106 21 24 38 48 38 52 0 5 4 9 9 9 5 0 8 -14 6 -31z m-1115 7 c25 -8 36
-15 25 -15 -11 0 -33 6 -50 14 -39 18 -31 18 25 1z m318 -12 c12 -8 34 -17 50
-18 15 -2 31 -4 36 -5 5 0 2 -8 -5 -17 -12 -15 -11 -16 8 -10 25 8 67 -10 58
-25 -7 -11 -45 -12 -45 -1 0 5 -16 14 -35 22 -19 7 -32 17 -29 22 3 4 0 8 -5
8 -6 0 -11 -6 -11 -14 0 -7 -11 -21 -25 -30 -29 -19 -59 -21 -49 -3 5 9 4 9
-5 1 -15 -14 -93 5 -88 21 4 13 53 19 75 9 27 -11 74 -15 68 -5 -8 12 -46 21
-46 10 0 -5 -9 -1 -20 8 -40 34 22 59 68 27z m382 -15 c0 -14 -27 -22 -47 -14
-17 6 -17 7 0 20 19 14 47 10 47 -6z m-717 4 c-7 -2 -19 -2 -25 0 -7 3 -2 5
12 5 14 0 19 -2 13 -5z m147 0 c-8 -3 -67 -28 -130 -55 -63 -28 -124 -54 -135
-58 -11 -5 -45 -23 -75 -40 l-55 -31 34 30 c19 16 72 47 118 68 72 32 81 39
61 44 -21 6 -20 7 7 9 30 2 30 2 5 11 l-25 8 25 -2 c14 -1 24 -8 23 -15 -4
-15 -7 -16 62 12 33 13 69 24 80 24 14 0 15 -1 5 -5z m358 -11 c2 -8 -8 -12
-30 -12 -31 1 -32 1 -13 15 21 17 37 15 43 -3z m-461 2 c-3 -3 -12 -4 -19 -1
-8 3 -5 6 6 6 11 1 17 -2 13 -5z m572 -20 c-28 -15 -49 -18 -49 -6 0 13 43 30
59 24 9 -4 6 -9 -10 -18z m-63 -32 c-34 -4 -58 14 -37 28 9 5 24 2 40 -8 l25
-17 -28 -3z m199 11 c22 -25 23 -28 7 -34 -23 -9 -49 11 -30 22 9 6 6 9 -9 9
-23 0 -29 10 -16 23 11 12 22 8 48 -20z m-826 13 c-2 -2 -20 -6 -39 -10 -25
-4 -31 -3 -20 4 14 9 69 15 59 6z m736 -5 c6 -11 -26 -31 -49 -31 -23 0 -19
15 7 28 28 14 35 14 42 3z m-280 -12 c-8 -12 -56 -32 -62 -25 -5 5 46 35 60
36 5 0 5 -5 2 -11z m-493 -15 c-21 -9 -42 -12 -55 -7 -18 6 -14 9 23 14 67 9
68 9 32 -7z m320 -8 c15 -8 36 -12 48 -9 29 8 25 -2 -17 -42 -35 -31 -36 -34
-15 -35 12 0 22 -4 22 -10 0 -5 5 -9 11 -7 23 5 19 -22 -5 -38 -31 -20 -53
-11 -34 13 12 15 11 16 -4 3 -15 -11 -23 -11 -50 0 -35 14 -38 15 -80 17 -33
2 -36 22 -8 47 13 12 28 16 47 12 99 -21 99 -21 84 -3 -7 9 -20 16 -28 16 -8
0 -24 5 -35 11 -21 11 -21 12 -3 25 24 17 33 17 67 0z m218 5 c0 -16 -27 -31
-44 -25 -13 5 -14 9 -5 20 13 15 49 19 49 5z m89 -11 c-8 -6 -3 -9 17 -12 16
-2 27 -7 24 -13 -8 -15 -57 -9 -75 9 -15 15 -15 17 7 25 26 10 47 3 27 -9z
m197 -3 l20 -22 -31 -15 c-29 -15 -32 -14 -55 7 -19 18 -21 23 -8 23 9 0 18 7
22 15 8 22 29 18 52 -8z m-81 -28 c20 -22 34 -43 31 -47 -4 -3 -20 9 -36 26
-16 18 -33 32 -38 32 -5 0 -15 7 -22 15 -10 12 -9 15 8 15 11 0 36 -18 57 -41z
m-805 6 c-14 -8 -32 -14 -40 -14 -8 0 -1 6 15 14 40 18 57 18 25 0z m550 5
c10 0 11 -3 3 -11 -8 -8 -17 -7 -31 2 -19 12 -25 10 -50 -14 -29 -28 -57 -36
-50 -15 6 18 71 49 93 43 11 -2 27 -5 35 -5z m80 2 c0 -18 -37 -42 -54 -36
-15 6 -13 9 11 25 31 21 43 24 43 11z m340 -3 c12 -8 9 -10 -12 -6 -16 2 -28
1 -28 -4 0 -12 33 -27 48 -22 6 3 12 0 12 -6 0 -13 -52 -11 -62 3 -4 6 -13 5
-22 -4 -9 -7 -20 -9 -24 -5 -4 4 -1 10 7 13 7 2 21 13 29 23 19 22 30 23 52 8z
m-284 -35 c37 -29 43 -44 18 -44 -10 0 -14 6 -10 15 7 19 -4 19 -32 -1 -26
-18 -29 -8 -5 18 9 10 11 18 6 18 -6 0 -16 -7 -23 -15 -7 -8 -17 -15 -22 -15
-6 0 -19 -11 -30 -25 -11 -14 -29 -25 -40 -25 -21 0 -21 0 2 25 13 14 29 25
35 25 6 0 22 11 35 25 13 14 25 25 27 25 3 0 20 -12 39 -26z m-170 1 c-4 -12
0 -14 21 -9 l26 7 -23 -31 c-20 -28 -50 -34 -50 -11 0 5 -7 9 -15 9 -19 0 -19
14 1 34 20 21 48 21 40 1z m261 4 c26 -10 27 -12 8 -19 -11 -5 -29 -9 -40 -9
l-20 0 20 15 c20 16 19 16 -4 9 -16 -5 -21 -4 -17 4 9 14 18 14 53 0z m-844
-16 c-7 -2 -19 -2 -25 0 -7 3 -2 5 12 5 14 0 19 -2 13 -5z m957 -24 c0 -5 -10
-9 -22 -8 -13 0 -17 3 -10 6 6 2 10 9 7 14 -4 5 1 6 9 3 9 -3 16 -10 16 -15z
m40 6 c0 -8 -7 -15 -15 -15 -8 0 -15 7 -15 15 0 8 7 15 15 15 8 0 15 -7 15
-15z m-108 -23 c-27 -4 -37 2 -27 17 4 8 13 7 28 -1 l22 -13 -23 -3z m177 19
c9 -6 10 -10 2 -16 -15 -8 -41 1 -41 15 0 12 20 13 39 1z m-235 -10 c3 -5 -1
-12 -10 -15 -27 -11 -37 -7 -24 9 14 17 26 19 34 6z m-128 -16 c9 -8 13 -16
10 -16 -3 -1 -10 -2 -15 -3 -5 0 -13 -4 -17 -8 -4 -5 -13 -8 -21 -8 -11 0 -10
5 3 25 19 29 21 30 40 10z m64 -5 c12 -8 11 -10 -7 -10 -13 0 -23 5 -23 10 0
13 11 13 30 0z m330 -16 c0 -12 -4 -12 -20 -2 -13 8 -16 15 -8 19 15 10 28 2
28 -17z m-1092 -13 c-7 -12 -18 -21 -25 -21 -18 0 -16 6 9 30 26 24 34 20 16
-9z m362 16 c19 -1 41 -7 48 -14 19 -18 9 -57 -16 -61 -12 -2 -22 0 -22 5 0 5
-8 10 -17 11 -10 1 -40 5 -68 8 -63 8 -72 17 -45 44 17 17 29 21 53 15 18 -3
48 -7 67 -8z m180 -17 c-18 -25 -25 -29 -36 -19 -13 10 -12 14 2 30 10 11 26
19 36 19 19 0 18 -1 -2 -30z m420 20 c0 -5 -4 -10 -10 -10 -5 0 -10 5 -10 10
0 6 5 10 10 10 6 0 10 -4 10 -10z m-370 -30 c-9 -6 -19 -5 -25 1 -6 6 -5 13 5
19 9 6 19 5 25 -1 6 -6 5 -13 -5 -19z m254 9 c-3 -5 -10 -7 -15 -3 -5 3 -7 10
-3 15 3 5 10 7 15 3 5 -3 7 -10 3 -15z m51 11 c-3 -5 -10 -10 -16 -10 -5 0 -9
5 -9 10 0 6 7 10 16 10 8 0 12 -4 9 -10z m150 0 c3 -5 -1 -10 -10 -10 -9 0
-13 5 -10 10 3 6 8 10 10 10 2 0 7 -4 10 -10z m-245 -9 c0 -5 -9 -11 -20 -14
-20 -5 -26 3 -13 16 9 10 33 8 33 -2z m-70 -21 c0 -5 -4 -10 -9 -10 -6 0 -13
5 -16 10 -3 6 1 10 9 10 9 0 16 -4 16 -10z m460 -8 c3 -2 -44 -2 -104 0 -60 3
-146 2 -190 -2 -92 -9 -294 -52 -376 -81 -69 -24 -168 -90 -257 -170 -60 -54
-58 -52 12 17 45 44 107 94 139 113 107 63 285 114 456 131 75 7 311 2 320 -8z
m-540 -2 c0 -5 -7 -10 -15 -10 -8 0 -15 5 -15 10 0 6 7 10 15 10 8 0 15 -4 15
-10z m-173 -17 c6 -17 -36 -38 -50 -24 -7 7 -6 15 3 26 15 18 41 17 47 -2z
m126 10 c3 -5 -6 -9 -19 -9 -13 -1 -24 2 -24 7 0 11 37 12 43 2z m-282 -31
c41 -18 50 -31 22 -33 -11 0 -13 -3 -5 -6 16 -6 6 -23 -15 -23 -10 0 -13 6 -9
16 5 14 4 15 -7 5 -16 -13 -90 -5 -96 10 -1 6 -9 2 -17 -8 -10 -13 -13 -14
-14 -4 0 26 39 58 72 59 17 0 48 -7 69 -16z m209 8 c0 -5 -7 -10 -16 -10 -8 0
-12 5 -9 10 3 6 10 10 16 10 5 0 9 -4 9 -10z m364 -2 c-4 -5 -9 -7 -12 -4 -3
3 -14 -1 -24 -11 -10 -9 -18 -13 -18 -8 0 11 30 32 46 32 7 0 11 -4 8 -9z
m100 -3 c-4 -8 -11 -12 -16 -9 -6 4 -5 10 3 15 19 12 19 11 13 -6z m120 4 c3
-2 -3 -10 -13 -16 -15 -10 -22 -8 -35 5 -14 17 -13 18 14 17 16 0 31 -3 34 -6z
m51 -9 c3 -5 1 -10 -4 -10 -6 0 -11 5 -11 10 0 6 2 10 4 10 3 0 8 -4 11 -10z
m32 -12 c2 -17 0 -19 -7 -8 -5 8 -6 18 -4 22 8 12 10 10 11 -14z m-403 -22 c2
-14 -1 -26 -5 -26 -5 0 -9 14 -9 32 0 36 10 32 14 -6z m30 26 c2 -4 0 -14 -6
-22 -8 -12 -9 -12 -5 2 3 9 1 19 -6 22 -9 3 -9 5 0 5 6 1 14 -3 17 -7z m319
-12 c3 -11 1 -18 -4 -14 -5 3 -9 12 -9 20 0 20 7 17 13 -6z m-648 0 c-3 -5
-10 -10 -16 -10 -5 0 -9 5 -9 10 0 6 7 10 16 10 8 0 12 -4 9 -10z m475 1 c0
-6 -4 -13 -10 -16 -5 -3 -10 1 -10 9 0 9 5 16 10 16 6 0 10 -4 10 -9z m-580
-16 c-7 -9 -15 -13 -17 -11 -7 7 7 26 19 26 6 0 6 -6 -2 -15z m275 5 c-3 -5
-16 -10 -28 -9 -20 1 -20 2 3 9 14 4 26 8 28 9 2 1 0 -3 -3 -9z m-225 -9 c0
-5 -7 -11 -15 -15 -15 -5 -20 5 -8 17 9 10 23 9 23 -2z m606 -3 c5 -7 3 -8 -6
-3 -9 6 -12 4 -8 -7 4 -8 0 -15 -7 -15 -10 0 -11 5 -4 19 11 21 15 22 25 6z
m-472 -16 c2 -4 -5 -9 -17 -9 -17 -2 -19 0 -7 7 18 12 18 12 24 2z m45 -15 c0
-9 -2 -8 -6 1 -2 6 -10 9 -15 6 -7 -4 -8 -2 -4 5 9 13 26 5 25 -12z m154 0 c4
3 7 1 7 -5 0 -20 -19 -13 -30 11 -10 20 -10 20 3 5 8 -10 17 -15 20 -11z
m-540 6 c-7 -2 -19 -2 -25 0 -7 3 -2 5 12 5 14 0 19 -2 13 -5z m44 1 c-3 -3
-12 -4 -19 -1 -8 3 -5 6 6 6 11 1 17 -2 13 -5z m93 -9 c-7 -9 -15 -13 -17 -11
-7 7 7 26 19 26 6 0 6 -6 -2 -15z m-44 -7 c4 -7 4 -10 -1 -6 -4 4 -14 3 -22
-3 -7 -6 -13 -8 -13 -3 0 5 -7 -2 -16 -14 -9 -13 -26 -22 -41 -22 -24 0 -25 1
-11 23 10 14 30 24 54 28 22 3 40 7 41 8 1 0 5 -5 9 -11z m204 2 c0 -5 -2 -10
-4 -10 -3 0 -8 5 -11 10 -3 6 -1 10 4 10 6 0 11 -4 11 -10z m-316 -26 c-9 -13
-20 -22 -24 -19 -5 3 -10 -1 -13 -7 -8 -22 -20 0 -13 25 4 18 13 24 36 25 29
1 29 0 14 -24z m883 18 c6 -4 -30 -7 -80 -6 -51 1 -97 -2 -104 -8 -7 -5 -17
-7 -24 -3 -8 6 -7 10 2 16 17 11 189 12 206 1z m-231 -9 c-3 -4 -21 -8 -39 -9
-45 -3 -87 -11 -122 -22 -16 -5 -36 -7 -44 -4 -10 3 -12 0 -8 -11 5 -14 1 -15
-25 -10 -21 4 -29 3 -25 -5 5 -6 0 -8 -13 -5 -12 3 -20 0 -20 -6 0 -7 -4 -10
-9 -7 -9 6 -49 -20 -41 -27 7 -7 154 43 158 53 1 4 14 5 29 2 19 -4 24 -2 18
8 -5 9 -4 11 3 6 6 -4 40 -2 74 3 128 21 390 21 333 1 -11 -4 -45 -5 -76 -2
-89 7 -281 -17 -387 -49 -130 -39 -258 -95 -236 -103 9 -3 23 -1 31 5 7 7 16
10 19 7 2 -3 -51 -38 -118 -79 -68 -40 -139 -84 -158 -98 -26 -19 -31 -21 -18
-5 9 11 69 51 132 89 72 44 110 72 103 77 -18 11 -29 10 -21 -4 4 -6 3 -8 -4
-4 -13 8 -84 -39 -74 -49 4 -5 -1 -5 -10 -2 -9 3 -22 -1 -28 -9 -7 -8 -19 -14
-26 -14 -8 0 -14 -4 -14 -10 0 -5 -7 -10 -15 -10 -8 0 -15 -4 -15 -9 0 -5 -8
-12 -17 -15 -32 -12 16 29 90 77 43 28 64 47 55 51 -10 4 -9 5 2 4 23 -3 61
12 55 22 -7 12 80 73 137 96 25 10 44 23 41 28 -4 5 -2 6 4 3 6 -4 53 4 104
18 89 23 191 33 175 18z m529 -14 c16 -6 16 -8 3 -8 -9 -1 -18 -4 -21 -8 -2
-5 -2 -2 -1 5 2 6 -2 12 -9 12 -7 0 -19 -6 -26 -12 -11 -11 -13 -10 -8 4 3 9
1 19 -6 21 -7 2 2 2 18 -1 17 -2 39 -8 50 -13z m-1071 -4 c-6 -16 -24 -21 -24
-7 0 11 11 22 21 22 5 0 6 -7 3 -15z m935 1 c9 -11 8 -15 -5 -20 -21 -8 -34 1
-27 19 7 19 17 19 32 1z m25 -44 c-4 -9 -8 -20 -8 -24 -3 -21 -23 -27 -42 -13
-17 13 -17 14 -1 15 10 0 24 16 35 41 14 33 18 36 20 19 2 -12 0 -29 -4 -38z
m214 6 c44 -27 41 -33 -5 -8 -21 11 -43 20 -50 20 -6 0 -15 5 -19 11 -9 15 32
2 74 -23z m-1215 7 c-3 -9 -8 -14 -10 -11 -3 3 -2 9 2 15 9 16 15 13 8 -4z
m-99 -17 c-6 -10 -4 -10 7 0 7 6 19 12 27 12 12 0 12 -3 2 -15 -7 -8 -20 -15
-29 -15 -14 0 -14 -2 -1 -10 8 -5 13 -10 10 -11 -49 -9 -60 -8 -60 5 0 8 10
22 22 30 27 19 31 20 22 4z m1193 6 c-3 -3 -12 -4 -19 -1 -8 3 -5 6 6 6 11 1
17 -2 13 -5z m-957 -42 c0 -2 -8 1 -17 7 -12 6 -21 5 -31 -7 -7 -10 -12 -12
-9 -7 2 6 7 18 10 28 6 16 7 16 27 0 11 -10 20 -19 20 -21z m582 21 c11 -10
18 -12 18 -4 0 14 64 -17 122 -60 37 -26 78 -84 78 -109 0 -5 -16 -10 -35 -10
-21 0 -35 5 -35 12 0 9 -3 9 -11 1 -9 -9 -21 -5 -48 17 -20 15 -54 33 -76 40
-22 7 -44 16 -49 21 -5 4 -14 2 -22 -5 -7 -7 -40 -16 -74 -19 -34 -4 -69 -11
-78 -17 -12 -7 -4 -8 28 -4 62 9 47 -2 -30 -22 -56 -14 -83 -19 -122 -23 -5
-1 -8 -8 -8 -16 0 -8 -6 -15 -12 -15 -7 0 -3 -9 10 -18 19 -14 24 -30 26 -70
3 -59 20 -83 81 -115 33 -18 57 -22 136 -22 88 0 99 3 138 28 25 17 49 43 57
63 18 43 24 43 24 -2 0 -25 -3 -33 -12 -28 -8 5 -7 1 2 -10 12 -16 11 -20 -10
-38 l-25 -20 25 14 c14 8 30 25 36 37 l11 21 11 -22 c10 -22 11 -21 11 9 1 22
-5 37 -18 45 -27 17 -9 61 35 87 19 12 36 21 38 21 2 0 8 -18 15 -41 7 -22 19
-43 27 -46 11 -4 8 -12 -15 -38 -16 -19 -32 -43 -36 -54 -3 -12 -10 -19 -15
-16 -4 3 -11 -2 -14 -11 -4 -10 -2 -13 7 -7 6 4 4 -5 -6 -20 -23 -36 -50 -153
-42 -188 7 -29 38 -59 63 -59 7 0 25 12 39 28 l26 27 -6 -26 c-4 -16 0 -42 8
-63 14 -32 14 -36 0 -36 -8 0 -15 9 -15 20 0 11 -4 20 -10 20 -17 0 -11 -40
12 -70 35 -48 52 -40 44 21 l-7 51 44 -54 c45 -54 45 -73 -1 -61 -12 3 -29 0
-37 -7 -12 -10 -18 -10 -30 0 -12 10 -22 10 -38 3 -13 -6 -30 -7 -38 -3 -15 9
-70 7 -85 -3 -17 -10 -138 3 -154 18 -10 9 -20 11 -31 4 -29 -15 -31 18 -4 57
30 44 31 68 5 119 -11 22 -20 40 -20 40 0 1 6 2 14 2 8 0 21 -21 30 -46 l16
-46 -6 40 c-3 22 -13 48 -21 58 -15 15 -15 17 0 17 10 0 17 -7 17 -16 0 -11 8
-14 27 -12 37 4 54 48 32 86 -13 23 -29 32 -88 49 -11 3 -10 8 5 25 19 21 19
21 -3 9 -12 -6 -25 -16 -28 -21 -8 -13 -52 -13 -60 0 -3 6 -21 17 -38 26 l-32
16 35 -30 35 -30 -33 0 c-25 1 -32 5 -27 16 3 10 0 12 -10 8 -8 -3 -15 -2 -15
3 0 5 -14 15 -32 22 -32 13 -32 13 -8 20 22 5 19 8 -26 21 -28 9 -60 22 -72
29 -15 10 -26 10 -44 2 -22 -11 -22 -12 9 -12 17 -1 38 -8 47 -16 8 -9 17 -14
20 -13 11 7 66 -45 66 -62 0 -11 10 -25 22 -31 21 -11 20 -12 -12 -25 -36 -16
-84 -19 -76 -5 3 5 -12 8 -33 7 -74 -2 -23 -20 59 -20 67 0 78 -2 68 -14 -9
-10 -8 -16 3 -23 24 -15 -38 -11 -102 7 -41 12 -69 28 -98 57 -23 22 -41 44
-41 48 0 15 -89 69 -113 69 -33 0 -85 30 -93 53 -3 9 -12 17 -20 17 -22 0 -18
-66 6 -90 11 -11 20 -24 20 -29 0 -5 10 -11 23 -13 22 -3 24 -11 18 -72 -1
-17 -23 -26 -49 -20 -61 17 -84 236 -26 258 8 3 36 -9 64 -26 46 -29 56 -31
132 -29 75 1 85 4 106 27 13 15 22 38 22 58 0 18 7 41 15 52 8 10 15 30 15 44
0 14 9 39 20 55 13 20 18 39 15 56 -5 22 -1 28 22 37 65 26 120 34 143 22 20
-11 22 -10 17 3 -8 21 6 25 77 26 42 1 65 -4 78 -16z m-747 -3 c-3 -5 -10 -10
-16 -10 -5 0 -9 5 -9 10 0 6 7 10 16 10 8 0 12 -4 9 -10z m85 -24 c0 -2 -7 -7
-16 -10 -8 -3 -12 -2 -9 4 6 10 25 14 25 6z m28 -41 c-3 -3 -9 2 -12 12 -6 14
-5 15 5 6 7 -7 10 -15 7 -18z m1020 18 c-24 -6 -23 -23 2 -23 10 0 23 7 28 16
8 14 11 14 26 -7 9 -13 16 -31 16 -40 0 -23 47 -59 74 -59 17 1 15 4 -10 14
-37 16 -53 36 -29 36 11 0 15 5 11 15 -15 40 73 -53 92 -97 2 -5 -9 -8 -23 -8
-23 0 -26 -2 -15 -15 8 -9 9 -15 2 -15 -6 0 -14 5 -17 11 -4 5 -28 20 -53 32
-36 17 -47 28 -46 45 0 18 -4 21 -25 16 -61 -13 -97 -28 -117 -46 -12 -11 -28
-16 -37 -12 -19 7 -23 24 -6 24 5 0 7 5 3 12 -5 8 -2 9 10 5 9 -4 15 -3 12 1
-13 22 69 102 104 100 10 0 10 -2 -2 -5z m-1188 -57 c0 -2 -8 -10 -17 -17 -16
-13 -17 -12 -4 4 13 16 21 21 21 13z m703 -23 c-7 -2 -19 -2 -25 0 -7 3 -2 5
12 5 14 0 19 -2 13 -5z m507 -21 c0 -11 -78 -44 -93 -39 -6 2 6 13 28 25 42
22 65 27 65 14z m-318 -35 c11 -21 10 -21 -12 -6 -28 19 -39 42 -16 33 9 -4
22 -16 28 -27z m-539 -49 c-3 -15 -13 -34 -23 -43 -16 -15 -21 -14 -58 5 -43
23 -59 45 -39 57 6 4 34 12 62 18 56 13 66 7 58 -37z m-113 -35 c12 -11 12
-13 0 -13 -24 1 -53 27 -44 41 5 9 10 9 18 -2 7 -8 18 -20 26 -26z m-263 -223
c-3 -55 -17 -99 -17 -53 0 30 12 113 17 113 2 0 2 -27 0 -60z m1437 -26 c4
-15 3 -31 -3 -37 -5 -5 -7 -15 -5 -22 3 -7 1 -16 -5 -20 -6 -3 -11 -1 -11 5 0
6 -5 8 -12 3 -19 -11 -37 -12 -43 -3 -3 5 4 11 15 15 11 3 20 11 20 16 0 5 9
9 20 9 17 0 18 3 10 26 -12 31 -12 34 -1 34 5 0 12 -12 15 -26z m-1478 -77
c-7 -144 -18 -222 -27 -204 -9 15 -12 154 -5 212 3 29 25 85 33 85 2 0 2 -42
-1 -93z m342 24 c1 -38 25 -84 58 -110 34 -27 36 -26 73 5 34 28 41 18 15 -21
-9 -14 -14 -25 -10 -25 3 0 17 18 31 40 14 22 29 40 34 40 5 0 6 -51 4 -112
-5 -111 -5 -114 23 -154 47 -67 83 -105 96 -102 7 1 22 -3 33 -9 11 -5 37 -11
58 -11 39 -1 81 -18 73 -30 -2 -4 11 -7 30 -6 59 3 79 -7 79 -41 0 -26 4 -30
28 -30 15 1 27 -3 27 -7 0 -4 4 -7 9 -5 5 1 16 -5 23 -15 7 -9 33 -19 57 -22
56 -7 73 -22 69 -59 -3 -28 -9 -32 -73 -54 -95 -32 -147 -35 -188 -9 -17 11
-34 20 -37 21 -47 7 -156 61 -224 111 -47 35 -102 72 -124 83 -125 64 -138
151 -19 138 39 -5 58 -13 75 -33 29 -33 23 -49 -17 -48 -41 2 -40 -15 2 -23
31 -7 31 -7 7 -14 -21 -6 -22 -7 -5 -8 12 -1 26 4 33 11 9 9 13 7 18 -8 17
-53 28 -74 42 -86 11 -9 10 -3 -5 22 -12 19 -26 62 -33 94 -16 76 -49 112
-113 121 -55 8 -96 -12 -98 -48 -1 -17 -3 -16 -9 8 -17 69 -14 75 37 75 62 0
83 20 83 77 0 31 -4 43 -14 43 -8 0 -17 10 -19 23 -4 22 -4 22 -6 0 0 -12 6
-28 14 -37 35 -34 7 -90 -45 -88 -18 0 -36 5 -39 11 -14 21 -34 -9 -39 -58 -3
-35 0 -56 9 -68 12 -14 12 -16 -1 -11 -12 4 -16 30 -21 124 -4 75 -14 146 -27
192 -11 40 -21 75 -22 77 -1 11 31 65 39 65 4 0 8 -13 9 -29z m-297 -28 c5
-14 11 -39 13 -55 3 -29 3 -29 -15 -9 -11 12 -19 35 -19 56 0 42 7 45 21 8z
m743 -118 l6 -40 -15 44 c-8 24 -22 53 -32 65 -11 13 -7 12 9 -4 17 -16 29
-40 32 -65z m410 34 c-18 -17 -22 -18 -33 -5 -10 12 -9 14 8 9 14 -3 23 0 27
11 4 9 9 14 12 11 3 -3 -3 -15 -14 -26z m-1150 -87 c4 -7 3 -18 -2 -25 -6 -7
-12 -28 -15 -47 -2 -19 -4 8 -4 60 -1 61 2 83 6 60 4 -20 11 -41 15 -48z m714
-24 c-8 -12 -21 -24 -29 -26 -8 -3 -3 7 10 22 30 32 39 34 19 4z m530 -33 c6
-14 9 -38 6 -54 -4 -17 -1 -44 5 -61 8 -24 8 -31 -2 -27 -7 2 -12 25 -12 60 0
31 -4 59 -8 63 -4 4 -7 1 -8 -7 0 -13 -37 56 -38 74 -2 16 46 -24 57 -48z
m-1067 -21 c8 -83 -1 -88 -25 -17 -22 65 -21 84 4 54 11 -13 21 -29 21 -37z
m-221 -44 c0 -25 5 -72 11 -105 5 -33 12 -73 14 -90 2 -16 9 -51 15 -77 9 -33
9 -52 1 -65 -9 -15 -10 -13 -11 15 0 17 -4 32 -8 32 -11 0 -35 127 -27 140 4
6 2 10 -4 10 -5 0 -10 15 -10 33 0 17 -3 58 -6 89 -8 64 0 103 15 78 6 -8 10
-35 10 -60z m761 1 c0 -10 2 -11 6 -3 8 21 23 13 23 -13 0 -16 -6 -25 -15 -25
-8 0 -15 4 -15 9 0 5 -9 7 -20 4 -17 -4 -20 0 -20 24 0 16 3 33 7 36 9 10 33
-13 34 -32z m452 -13 c12 -34 16 -38 16 -18 1 14 5 32 11 40 7 11 11 9 19 -13
16 -41 14 -77 -4 -77 -8 0 -15 6 -15 13 0 9 -2 9 -8 0 -4 -7 -23 -14 -42 -15
l-35 -3 2 43 c2 42 16 72 33 72 5 0 15 -19 23 -42z m-332 -8 c13 -43 9 -56
-16 -47 -10 4 -15 20 -15 47 0 51 16 51 31 0z m249 14 c6 -14 10 -39 10 -55 0
-24 -4 -29 -25 -29 -23 0 -25 3 -25 48 0 27 3 52 7 55 12 13 24 7 33 -19z
m-1071 -111 c1 -54 -13 -73 -21 -29 -3 13 -5 55 -6 92 l-1 69 14 -40 c7 -22
14 -64 14 -92z m891 61 c0 -17 -6 -24 -19 -24 -27 0 -34 15 -26 58 l7 37 19
-24 c10 -13 19 -34 19 -47z m54 50 c3 -9 6 -25 7 -37 0 -17 4 -13 13 12 16 46
31 49 45 10 16 -45 0 -70 -42 -65 -18 3 -38 5 -44 5 -19 1 -18 91 1 91 8 0 17
-7 20 -16z m-169 -14 c7 -23 -2 -43 -16 -35 -12 8 -12 55 0 55 5 0 12 -9 16
-20z m-545 -119 c0 -12 -4 -21 -8 -21 -12 0 -42 67 -42 93 0 18 4 16 25 -15
14 -20 25 -46 25 -57z m447 83 c-3 -4 -2 -15 3 -25 6 -10 6 -20 1 -23 -5 -3
-12 1 -15 10 -9 25 -7 44 6 44 6 0 8 -3 5 -6z m53 -30 c0 -14 -4 -23 -10 -19
-5 3 -10 15 -10 26 0 10 5 19 10 19 6 0 10 -12 10 -26z m33 0 c9 -9 -4 -35
-14 -28 -5 3 -9 12 -9 20 0 14 12 19 23 8z m38 -17 c-1 -4 -1 -14 -1 -23 0 -8
-4 -12 -10 -9 -13 8 -13 48 1 43 6 -2 10 -7 10 -11z m52 -17 c-3 -11 -12 -20
-19 -20 -8 0 -14 9 -14 20 0 13 7 20 19 20 14 0 18 -5 14 -20z m55 -2 c-5 -34
-38 -37 -38 -4 0 20 5 26 21 26 15 0 20 -5 17 -22z m60 0 c2 -9 -6 -22 -17
-28 -19 -10 -21 -8 -21 20 0 25 4 31 17 28 10 -2 19 -11 21 -20z m52 -8 c0
-10 -9 -24 -20 -30 -17 -9 -20 -8 -20 13 0 27 7 37 27 37 7 0 13 -9 13 -20z
m60 6 c0 -8 -9 -24 -20 -37 l-19 -24 -1 38 c0 30 3 37 20 37 11 0 20 -6 20
-14z m41 -8 c-12 -32 -31 -34 -31 -4 0 19 5 26 20 26 16 0 18 -4 11 -22z m49
14 c0 -5 -7 -17 -15 -28 -14 -18 -14 -18 -15 9 0 17 5 27 15 27 8 0 15 -4 15
-8z m40 -7 c-7 -8 -16 -15 -21 -15 -5 0 -6 7 -3 15 4 8 13 15 21 15 13 0 13
-3 3 -15z m-840 -52 c0 -8 -36 16 -55 38 -16 19 -13 18 18 -5 20 -16 37 -30
37 -33z m-127 -22 c10 -17 17 -33 16 -38 -5 -28 2 -73 11 -68 6 4 10 -8 10
-29 0 -27 -3 -34 -15 -30 -8 4 -16 15 -16 25 -1 10 -3 24 -4 29 -1 6 -3 27 -4
48 -2 28 -4 32 -10 18 -7 -18 -8 -18 -14 5 -9 33 -9 69 1 69 4 0 15 -13 25
-29z m697 -1 c22 6 30 5 35 -8 4 -12 8 -13 17 -4 15 15 28 15 28 2 0 -5 -7
-10 -15 -10 -8 0 -15 -6 -15 -12 0 -9 -3 -9 -9 1 -5 8 -16 11 -24 8 -9 -3 -18
-1 -21 6 -5 9 -7 9 -12 0 -4 -10 -11 -10 -25 -2 -11 5 -17 15 -13 20 4 7 10 7
16 1 6 -6 22 -7 38 -2z m170 -4 c0 -2 -7 -7 -16 -10 -8 -3 -12 -2 -9 4 6 10
25 14 25 6z m-43 -12 c-3 -3 -12 -4 -19 -1 -8 3 -5 6 6 6 11 1 17 -2 13 -5z
m-613 -55 c-3 -5 0 -9 5 -9 6 0 11 -5 11 -11 0 -6 -6 -7 -12 -2 -7 4 2 -10 20
-32 17 -22 32 -43 32 -46 0 -9 -41 1 -57 13 -13 11 -44 94 -37 101 9 8 44 -5
38 -14z m-447 -11 c-3 -8 -6 -5 -6 6 -1 11 2 17 5 13 3 -3 4 -12 1 -19z m300
-40 c-3 -7 -5 -2 -5 12 0 14 2 19 5 13 2 -7 2 -19 0 -25z m813 17 c0 6 4 4 8
-3 5 -7 25 -13 44 -14 26 -1 35 -5 31 -15 -3 -7 -10 -10 -16 -6 -6 4 -7 1 -2
-7 10 -16 -12 -30 -47 -30 -24 0 -28 4 -28 29 0 16 -3 38 -6 48 -5 15 -4 15 5
3 6 -8 11 -10 11 -5z m-1091 -40 c0 -5 -4 -3 -9 5 -5 8 -9 22 -9 30 0 16 17
-16 18 -35z m58 -59 c5 -28 -7 -13 -29 36 l-18 43 22 -29 c12 -16 24 -39 25
-50z m-82 14 c-9 -41 -17 -33 -9 9 4 17 9 30 11 27 3 -2 2 -19 -2 -36z m45
-15 c0 -5 -5 -3 -11 5 -8 11 -9 8 -4 -15 4 -16 9 -59 11 -95 l3 -65 -18 50
c-23 59 -25 95 -9 130 8 18 14 22 20 13 4 -7 8 -17 8 -23z m270 -1 c0 -8 4
-14 8 -14 5 0 6 -14 4 -31 l-5 -32 -13 24 c-16 28 -19 83 -4 74 6 -3 10 -13
10 -21z m46 -19 c1 -15 11 -36 21 -47 10 -11 16 -31 15 -45 -3 -20 0 -24 12
-20 12 5 17 -3 21 -31 3 -20 8 -48 11 -60 6 -32 -12 -20 -32 21 -9 18 -20 34
-24 37 -11 8 -30 70 -30 97 0 14 -4 21 -10 18 -14 -9 -13 8 2 23 9 9 9 15 0
24 -7 7 -12 17 -12 22 0 21 23 -14 26 -39z m134 15 c15 -8 30 -41 34 -72 1 -3
4 -10 9 -14 4 -4 7 -14 7 -23 0 -23 -43 22 -45 47 0 11 -9 31 -18 46 -19 28
-16 32 13 16z m-386 -112 c4 -23 3 -38 -3 -38 -15 0 -18 10 -25 70 -6 51 -5
53 8 30 7 -14 16 -42 20 -62z m806 29 c0 -5 -17 -7 -37 -5 -30 2 -39 7 -41 25
-3 22 -3 22 37 5 23 -9 41 -21 41 -25z m-845 -57 c3 -5 1 -10 -4 -10 -6 0 -11
5 -11 10 0 6 2 10 4 10 3 0 8 -4 11 -10z m106 -49 c20 -16 24 -30 27 -95 5
-97 -20 -156 -84 -195 -24 -14 -44 -29 -44 -33 0 -3 26 -4 58 -1 48 4 62 1 92
-19 94 -63 106 -237 22 -311 -30 -27 -84 -37 -119 -22 -35 15 -46 49 -62 190
-28 250 -38 450 -22 459 5 4 22 -14 38 -39 41 -66 53 -66 52 3 0 44 -2 52 -9
35 -5 -13 -11 -23 -14 -23 -2 0 -2 10 0 23 2 12 2 16 -2 10 -3 -7 -10 -13 -15
-13 -5 0 -3 11 3 25 14 30 46 33 79 6z m387 -26 c0 -37 -6 -43 -26 -23 -17 17
-15 33 2 19 12 -10 14 -8 12 13 -2 15 0 26 4 26 5 0 8 -16 8 -35z m215 -179
c9 -72 16 -131 14 -132 -6 -6 -162 -6 -160 0 1 3 4 25 8 47 5 30 13 43 31 49
13 5 24 14 24 20 0 6 13 31 29 54 21 29 27 47 20 57 -5 8 -9 30 -8 49 l0 35
13 -25 c7 -14 21 -83 29 -154z m-250 107 c-5 -12 -7 -12 -14 -1 -13 20 -11 28
5 22 8 -3 12 -12 9 -21z m36 -1 c-1 -9 3 -28 7 -41 l7 -25 -23 21 c-17 17 -21
28 -16 48 7 28 25 26 25 -3z m38 -84 c-3 -7 -5 -2 -5 12 0 14 2 19 5 13 2 -7
2 -19 0 -25z m65 -30 c-8 -8 -9 -4 -5 13 4 13 8 18 11 10 2 -7 -1 -18 -6 -23z"/>
<path d="M2491 4264 c0 -11 3 -14 6 -6 3 7 2 16 -1 19 -3 4 -6 -2 -5 -13z"/>
<path d="M2554 4135 c-12 -18 -14 -33 -8 -52 8 -27 8 -26 12 12 2 22 8 45 14
52 6 7 8 13 4 13 -3 0 -13 -11 -22 -25z"/>
<path d="M2521 4084 c0 -11 3 -14 6 -6 3 7 2 16 -1 19 -3 4 -6 -2 -5 -13z"/>
<path d="M2450 3805 c0 -8 4 -15 9 -15 5 0 11 7 15 15 3 9 0 15 -9 15 -8 0
-15 -7 -15 -15z"/>
<path d="M2494 3675 c-17 -13 -17 -14 -2 -15 9 0 20 5 23 11 11 17 0 20 -21 4z"/>
<path d="M2043 3247 c-24 -17 -41 -32 -39 -34 8 -8 96 42 96 54 0 19 -10 15
-57 -20z"/>
<path d="M2367 3273 c-12 -11 -8 -23 7 -23 8 0 16 -7 20 -15 7 -19 89 -20 142
-1 22 7 45 11 52 9 18 -7 15 14 -4 21 -8 3 -33 -3 -54 -14 -39 -20 -96 -26
-116 -12 -6 4 -13 15 -17 25 -7 18 -19 22 -30 10z"/>
<path d="M2343 3226 c12 -14 23 -23 25 -21 7 6 -23 45 -35 45 -6 0 -2 -11 10
-24z"/>
<path d="M2666 3241 c-4 -5 -2 -12 3 -15 5 -4 12 -2 15 3 4 5 2 12 -3 15 -5 4
-12 2 -15 -3z"/>
<path d="M2710 3212 c0 -5 7 -9 15 -9 8 0 15 4 15 9 0 4 -7 8 -15 8 -8 0 -15
-4 -15 -8z"/>
<path d="M2303 3195 c-3 -9 -3 -18 -1 -21 3 -3 8 4 11 16 6 23 -1 27 -10 5z"/>
<path d="M2210 2944 c0 -14 33 -44 49 -44 7 0 11 6 9 13 -3 6 -11 12 -19 12
-8 0 -19 7 -26 15 -7 8 -13 10 -13 4z"/>
<path d="M2100 2863 c0 -14 30 -53 41 -53 18 0 8 25 -16 43 -14 10 -25 14 -25
10z"/>
<path d="M2212 2853 c-8 -3 -4 -12 13 -25 14 -11 29 -17 33 -13 4 4 1 10 -6
12 -6 3 -10 8 -7 13 6 10 -16 19 -33 13z"/>
<path d="M2714 2846 c-3 -7 -17 -14 -32 -14 -62 -3 -86 -8 -90 -19 -5 -16 44
-18 53 -3 3 6 19 10 35 10 19 0 33 7 40 20 6 11 8 20 5 20 -3 0 -8 -6 -11 -14z"/>
<path d="M2160 2805 c0 -8 2 -15 4 -15 2 0 6 7 10 15 3 8 1 15 -4 15 -6 0 -10
-7 -10 -15z"/>
<path d="M2276 2802 c-3 -5 1 -9 9 -9 8 0 15 4 15 9 0 4 -4 8 -9 8 -6 0 -12
-4 -15 -8z"/>
<path d="M2705 2790 c3 -5 10 -10 16 -10 5 0 9 5 9 10 0 6 -7 10 -16 10 -8 0
-12 -4 -9 -10z"/>
<path d="M2629 2763 c-10 -11 -10 -14 -1 -9 6 4 12 2 12 -3 0 -6 8 -11 18 -11
15 1 15 2 -2 11 -15 9 -16 13 -5 20 8 5 9 9 3 9 -6 0 -18 -8 -25 -17z"/>
<path d="M2578 2581 c-10 -21 -17 -51 -17 -67 1 -19 3 -22 6 -9 2 11 11 39 20
63 19 54 14 62 -9 13z"/>
<path d="M2635 2599 c-4 -6 -5 -12 -2 -15 2 -3 7 2 10 11 7 17 1 20 -8 4z"/>
<path d="M2692 2558 c-2 -36 -4 -38 -36 -38 -19 0 -38 5 -41 10 -3 6 -11 10
-18 10 -8 0 -8 -3 1 -12 14 -14 16 -42 2 -33 -5 3 -10 2 -10 -4 0 -20 19 -21
25 -1 4 14 15 20 36 20 25 0 29 -4 27 -22 -2 -13 2 -25 7 -28 6 -3 11 7 13 23
2 18 9 27 21 27 25 0 43 -24 34 -45 -4 -13 -3 -16 5 -11 31 19 -10 82 -43 69
-10 -3 -15 7 -18 34 l-4 38 -1 -37z"/>
<path d="M2640 2560 c0 -5 5 -10 10 -10 6 0 10 5 10 10 0 6 -4 10 -10 10 -5 0
-10 -4 -10 -10z"/>
<path d="M2565 2459 c-10 -15 3 -25 16 -12 7 7 7 13 1 17 -6 3 -14 1 -17 -5z"/>
<path d="M2610 2450 c0 -5 5 -10 11 -10 5 0 7 5 4 10 -3 6 -8 10 -11 10 -2 0
-4 -4 -4 -10z"/>
<path d="M1705 2729 c-4 -6 -5 -12 -2 -15 2 -3 7 2 10 11 7 17 1 20 -8 4z"/>
<path d="M2147 2469 c-7 -26 -1 -39 18 -39 21 0 25 27 6 44 -17 16 -19 15 -24
-5z"/>
<path d="M2150 2320 c-12 -7 -12 -12 -2 -22 9 -9 12 -9 12 0 0 7 10 17 23 22
20 8 20 9 2 9 -11 0 -27 -4 -35 -9z"/>
<path d="M2222 2308 c3 -7 15 -15 27 -16 15 -2 21 0 16 7 -3 6 -11 9 -16 6 -5
-4 -9 -1 -9 4 0 6 -5 11 -11 11 -6 0 -9 -6 -7 -12z"/>
<path d="M2182 2289 c2 -6 8 -10 13 -10 5 0 11 4 13 10 2 6 -4 11 -13 11 -9 0
-15 -5 -13 -11z"/>
<path d="M2270 2270 c0 -5 5 -10 10 -10 6 0 10 5 10 10 0 6 -4 10 -10 10 -5 0
-10 -4 -10 -10z"/>
<path d="M2409 2231 c-14 -11 -19 -23 -14 -30 5 -9 10 -7 19 9 13 26 32 24 28
-2 -2 -10 2 -18 8 -18 6 0 8 5 5 10 -10 16 5 12 36 -11 24 -17 27 -24 19 -40
-14 -25 -33 -25 -25 1 5 15 2 20 -10 20 -11 0 -15 -5 -11 -15 3 -9 -1 -15 -11
-15 -13 0 -13 -3 -3 -15 30 -37 89 -1 77 47 -5 16 -3 17 9 7 12 -10 18 -9 32
4 15 16 15 17 -1 17 -10 0 -44 11 -77 24 -57 24 -61 24 -81 7z"/>
<path d="M2610 2202 c0 -11 6 -22 14 -25 10 -4 12 0 9 14 -7 27 -23 34 -23 11z"/>
<path d="M2390 2160 c0 -5 5 -10 10 -10 6 0 10 5 10 10 0 6 -4 10 -10 10 -5 0
-10 -4 -10 -10z"/>
<path d="M2535 2131 c-4 -15 -1 -27 7 -32 21 -14 33 -10 14 4 -17 12 -17 15
-2 30 13 13 22 14 44 6 46 -18 69 -46 65 -82 l-3 -32 10 30 c13 40 7 56 -34
83 -44 30 -93 27 -101 -7z"/>
<path d="M2582 2114 c1 -9 9 -19 16 -22 9 -3 13 2 10 14 -1 9 -9 19 -16 22 -9
3 -13 -2 -10 -14z"/>
<path d="M2506 2082 c-3 -6 -1 -14 5 -17 15 -10 25 3 12 16 -7 7 -13 7 -17 1z"/>
<path d="M2576 2073 c-11 -11 -6 -23 9 -23 8 0 15 4 15 9 0 13 -16 22 -24 14z"/>
<path d="M2764 2054 c3 -9 6 -18 6 -20 0 -3 5 -2 10 1 16 10 12 35 -6 35 -11
0 -14 -5 -10 -16z"/>
<path d="M2696 2051 c-3 -4 1 -17 9 -27 11 -15 16 -16 26 -7 10 10 9 15 -1 28
-14 17 -26 19 -34 6z"/>
<path d="M2745 4705 c25 -72 28 -76 39 -65 8 9 8 14 -1 17 -7 3 -13 10 -13 17
0 7 -7 21 -16 32 -15 19 -16 19 -9 -1z"/>
<path d="M2852 4675 c0 -16 3 -39 8 -50 l9 -20 -1 20 c0 11 -4 34 -8 50 l-8
30 0 -30z"/>
<path d="M2781 4604 c0 -11 3 -14 6 -6 3 7 2 16 -1 19 -3 4 -6 -2 -5 -13z"/>
<path d="M2949 4412 c-3 -28 0 -47 8 -54 10 -8 13 -3 12 23 0 19 -4 43 -8 54
-6 16 -9 11 -12 -23z"/>
<path d="M2120 4212 c0 -5 7 -16 16 -23 14 -12 16 -11 13 5 -4 20 -29 35 -29
18z"/>
<path d="M2775 3360 c-3 -5 -1 -18 4 -27 9 -16 10 -14 11 10 0 28 -5 34 -15
17z"/>
<path d="M2990 1860 c0 -5 10 -14 21 -21 20 -10 21 -16 15 -78 -4 -36 -17
-115 -29 -175 -21 -106 -25 -113 -65 -133 -2 -1 4 -12 12 -25 15 -23 14 -33
-4 -129 -26 -128 -34 -149 -60 -149 -27 0 -26 -28 3 -35 85 -19 395 -65 412
-61 35 9 71 105 46 121 -10 6 -41 -21 -41 -35 0 -30 -102 -49 -180 -34 l-32 7
6 71 c11 119 29 188 51 200 11 6 22 12 24 13 2 2 -4 12 -14 23 -17 19 -18 27
-6 98 15 94 50 241 63 265 5 9 18 17 28 17 20 0 27 14 12 23 -7 5 -233 47
-252 47 -5 0 -10 -4 -10 -10z"/>
<path d="M1305 1740 c-11 -12 -71 -37 -145 -60 -70 -22 -142 -50 -161 -63 -40
-27 -70 -97 -53 -124 21 -33 34 -26 34 17 0 33 6 48 32 73 l32 32 13 -45 c7
-24 25 -116 40 -204 l26 -159 -23 -19 c-25 -20 -25 -20 6 -36 17 -9 24 -27 33
-87 17 -113 14 -163 -9 -192 -11 -15 -18 -28 -16 -31 3 -2 41 10 86 28 74 30
94 50 50 50 -27 0 -36 22 -49 115 -7 44 -14 92 -17 107 -5 25 -1 28 75 57 44
17 83 31 86 31 7 0 105 -200 105 -215 0 -7 -9 -24 -20 -38 -37 -47 -20 -63 28
-27 15 11 68 36 117 54 66 25 94 41 105 59 19 35 6 46 -19 16 -19 -24 -20 -24
-34 -4 -9 11 -37 61 -64 112 -42 80 -46 95 -35 112 17 28 16 31 -12 31 -15 0
-32 10 -44 28 -24 34 -101 186 -136 271 -25 57 -26 65 -12 80 17 19 22 51 8
51 -5 0 -17 -9 -27 -20z m-68 -294 c52 -98 91 -181 87 -186 -5 -4 -39 -19 -77
-33 l-67 -25 -5 21 c-3 12 -14 96 -25 187 -11 91 -22 178 -25 193 -10 59 19
18 112 -157z"/>
<path d="M3560 1741 c0 -5 10 -15 23 -24 l22 -15 -49 -148 c-54 -168 -68 -194
-97 -194 -16 0 -19 -4 -14 -17 19 -46 9 -91 -60 -265 -4 -10 -18 -18 -31 -18
-14 0 -24 -6 -24 -14 0 -10 64 -36 202 -81 165 -55 205 -65 224 -56 25 11 68
86 59 101 -9 15 -35 12 -42 -5 -8 -21 -56 -45 -91 -45 -42 0 -132 29 -132 43
-1 25 64 223 78 240 8 9 23 17 33 17 17 0 17 1 1 29 -16 29 -16 33 17 128 49
142 87 222 108 229 10 3 25 8 33 11 22 7 -4 19 -127 59 -110 35 -133 40 -133
25z"/>
<path d="M705 1459 c-84 -49 -118 -80 -153 -139 -24 -39 -27 -56 -27 -130 0
-76 4 -93 34 -156 25 -55 31 -79 26 -103 -6 -28 -4 -31 18 -31 17 0 39 -18 77
-61 102 -117 166 -145 261 -114 28 10 68 34 90 54 36 35 39 42 39 90 0 57 -34
151 -55 151 -31 0 -35 -27 -11 -71 37 -67 41 -100 16 -132 -12 -15 -31 -27
-44 -27 -77 0 -215 198 -286 407 -38 115 -40 176 -6 198 31 21 52 11 96 -45
27 -34 35 -38 51 -30 18 10 18 13 -11 70 -17 33 -30 71 -30 85 0 14 -3 25 -8
25 -4 0 -39 -18 -77 -41z"/>
<path d="M4167 1425 c-63 -23 -133 -82 -189 -156 -38 -52 -57 -69 -70 -66 -19
5 -23 -9 -9 -31 5 -9 -1 -41 -16 -85 -35 -100 -30 -198 12 -259 67 -95 195
-134 289 -89 43 22 104 74 159 139 17 20 36 32 52 32 28 0 29 3 15 31 -8 14
-6 28 9 56 32 63 61 172 61 227 -1 156 -159 257 -313 201z m201 -47 c33 -33
-3 -147 -108 -340 -67 -123 -94 -163 -149 -221 -48 -52 -76 -62 -109 -41 -23
15 -24 20 -20 79 12 146 184 450 292 516 35 22 76 25 94 7z"/>
<path d="M2210 843 c-41 -85 -167 -459 -158 -468 4 -4 28 0 55 8 26 9 86 23
133 32 88 17 98 21 87 31 -6 6 -197 -29 -231 -42 -9 -3 -16 -2 -16 3 0 21 131
395 155 442 28 55 29 61 16 61 -5 0 -23 -30 -41 -67z"/>
<path d="M2561 829 c-11 -17 -36 -72 -57 -121 -41 -97 -48 -103 -131 -115 -32
-4 -42 -10 -39 -19 4 -8 8 -20 11 -27 9 -21 -27 -59 -44 -48 -20 13 -6 73 25
106 29 32 24 47 -7 19 -30 -27 -49 -68 -49 -104 0 -23 6 -33 26 -42 24 -11 29
-9 50 15 13 16 24 39 24 51 0 19 8 26 40 34 22 5 42 7 44 3 3 -4 0 -25 -6 -47
-16 -63 -26 -148 -18 -157 4 -5 15 14 24 41 16 49 18 50 64 57 47 7 128 40
169 71 23 16 23 16 17 -13 -6 -32 15 -63 42 -63 24 0 54 38 54 68 0 25 5 29
50 41 46 12 68 26 58 37 -3 2 -24 -3 -48 -11 -23 -8 -56 -15 -72 -15 -25 0
-29 -3 -23 -17 16 -39 16 -51 -1 -67 -14 -15 -19 -15 -30 -4 -18 17 -2 77 26
103 20 18 26 35 12 35 -4 0 -32 -21 -62 -46 -67 -56 -143 -94 -189 -94 l-34 0
52 54 c47 50 66 96 40 96 -12 0 -53 -40 -86 -85 l-22 -30 15 52 c8 29 37 96
64 150 27 54 50 104 50 111 0 22 -20 13 -39 -19z m0 -227 c-5 -10 -18 -25 -27
-33 -16 -12 -17 -12 -9 1 10 18 37 50 42 50 2 0 -1 -8 -6 -18z"/>
</g>
</svg>
